<!DOCTYPE svg PUBLIC "-//W3C//DTD SVG 1.1//EN" "http://www.w3.org/Graphics/SVG/1.1/DTD/svg11.dtd">
<!-- Uploaded to: SVG Repo, www.svgrepo.com, Transformed by: SVG Repo Mixer Tools -->
<svg fill="#000000" height="800px" width="800px" version="1.1" id="Capa_1" xmlns="http://www.w3.org/2000/svg" xmlns:xlink="http://www.w3.org/1999/xlink" viewBox="0 0 417.203 417.203" xml:space="preserve">
<g id="SVGRepo_bgCarrier" stroke-width="0"/>
<g id="SVGRepo_tracerCarrier" stroke-linecap="round" stroke-linejoin="round"/>
<g id="SVGRepo_iconCarrier"> <g> <path d="M134.026,350.912c-13.807,0-25.04,11.233-25.04,25.04c0,13.807,11.233,25.04,25.04,25.04s25.04-11.233,25.04-25.04 C159.066,362.145,147.833,350.912,134.026,350.912z M134.026,395.992c-11.05,0-20.04-8.99-20.04-20.04 c0-11.05,8.99-20.04,20.04-20.04s20.04,8.99,20.04,20.04C154.066,387.002,145.076,395.992,134.026,395.992z"/> <path d="M134.026,361.573c-7.929,0-14.379,6.451-14.379,14.379s6.451,14.379,14.379,14.379s14.379-6.451,14.379-14.379 S141.955,361.573,134.026,361.573z M134.026,385.332c-5.172,0-9.379-4.208-9.379-9.379s4.208-9.379,9.379-9.379 s9.379,4.208,9.379,9.379S139.198,385.332,134.026,385.332z"/> <path d="M349.612,367.937c-6.847,0-12.417,5.57-12.417,12.417s5.57,12.417,12.417,12.417s12.417-5.57,12.417-12.417 S356.459,367.937,349.612,367.937z M349.612,387.772c-4.09,0-7.417-3.328-7.417-7.417s3.328-7.417,7.417-7.417 s7.417,3.328,7.417,7.417S353.702,387.772,349.612,387.772z"/> <path d="M244.126,207.451c-36.552,0-66.29,29.738-66.29,66.291c0,36.552,29.738,66.29,66.29,66.29 c36.553,0,66.291-29.738,66.291-66.29C310.417,237.189,280.679,207.451,244.126,207.451z M244.126,335.031 c-33.795,0-61.29-27.495-61.29-61.29c0-33.796,27.495-61.291,61.29-61.291c33.796,0,61.291,27.495,61.291,61.291 C305.417,307.537,277.922,335.031,244.126,335.031z"/> <path d="M270.223,225.713c-7.957-4.332-16.981-6.622-26.097-6.622c-1.381,0-2.5,1.119-2.5,2.5s1.119,2.5,2.5,2.5 c8.283,0,16.48,2.08,23.707,6.014c0.379,0.207,0.789,0.305,1.193,0.305c0.886,0,1.745-0.472,2.198-1.305 C271.884,227.891,271.436,226.373,270.223,225.713z"/> <path d="M285.94,242.47c-1.144,0.774-1.443,2.329-0.669,3.472c5.564,8.22,8.506,17.833,8.506,27.8 c0,15.238-6.853,29.418-18.801,38.906c-1.081,0.859-1.262,2.431-0.403,3.513c0.494,0.622,1.223,0.945,1.959,0.945 c0.545,0,1.093-0.177,1.553-0.542c13.15-10.442,20.692-26.05,20.692-42.822c0-10.97-3.238-21.552-9.365-30.603 C288.638,241.996,287.084,241.696,285.94,242.47z"/> <path d="M244.126,197.084c-42.269,0-76.657,34.388-76.657,76.657c0,42.269,34.388,76.657,76.657,76.657 c42.269,0,76.657-34.388,76.657-76.657C320.783,231.472,286.395,197.084,244.126,197.084z M244.126,345.398 c-39.512,0-71.657-32.145-71.657-71.657s32.145-71.657,71.657-71.657s71.657,32.146,71.657,71.657S283.638,345.398,244.126,345.398 z"/> <path d="M244.126,185.242c-48.798,0-88.499,39.701-88.499,88.499s39.701,88.499,88.499,88.499c48.799,0,88.5-39.701,88.5-88.499 S292.925,185.242,244.126,185.242z M244.126,357.24c-46.042,0-83.499-37.458-83.499-83.499s37.458-83.499,83.499-83.499 c46.042,0,83.5,37.458,83.5,83.499S290.168,357.24,244.126,357.24z"/> <path d="M244.126,153.28c-66.423,0-120.462,54.039-120.462,120.462s54.039,120.462,120.462,120.462 c66.423,0,120.462-54.039,120.462-120.462S310.549,153.28,244.126,153.28z M244.126,389.203 c-63.666,0-115.462-51.796-115.462-115.462S180.46,158.28,244.126,158.28s115.462,51.796,115.462,115.462 S307.792,389.203,244.126,389.203z"/> <path d="M244.126,163.33c-60.881,0-110.412,49.53-110.412,110.412s49.53,110.412,110.412,110.412s110.412-49.53,110.412-110.412 S305.007,163.33,244.126,163.33z M244.126,379.153c-58.124,0-105.412-47.288-105.412-105.412S186.002,168.33,244.126,168.33 c58.125,0,105.412,47.288,105.412,105.412S302.25,379.153,244.126,379.153z"/> <path d="M402.601,291.794v-10.625l14.602,8.423v-40.275l-14.602,8.423v-10.616h-16.233v-12.703l17.135-4.508v-83.767h-17.135 v-1.111c0-10.819-8.802-19.621-19.621-19.621h-1.111v-46.1L308.821,0.99H182.136l-56.815,78.324v33.469h-76.64v27.544h9.02v9.426H0 V278.27h84.75v22.048H69.422v69.013H84.75v17.484c0,16.21,13.188,29.399,29.399,29.399h237.715c11.106,0,20.997-5.28,27.312-13.455 l26.126-12.116v-54.285l-18.934-8.791v-35.772H402.601z M402.601,263.511l9.602-5.539v22.962l-9.602-5.539V263.511z M386.368,151.146h12.135v74.913l-12.135,3.192V151.146z M386.368,252.124h11.233v34.67h-11.233V252.124z M84.75,364.33H74.422 v-7.622H84.75V364.33z M84.75,351.708H74.422v-7.923H84.75V351.708z M84.75,338.785H74.422v-7.923H84.75V338.785z M84.75,325.863 H74.422v-7.923H84.75V325.863z M84.75,312.94H74.422v-7.622H84.75V312.94z M184.686,5.99h121.585l51.314,70.74 c-74.422-11.362-149.789-11.362-224.213,0L184.686,5.99z M130.321,82.265c76.427-12.073,153.889-12.073,230.315,0v56.516 c0,0.581-0.473,1.054-1.054,1.054H131.375c-0.581,0-1.053-0.473-1.053-1.054V82.265z M33.359,273.27H5v-22.949h28.359V273.27z M33.359,245.321H5v-90.568h28.359V245.321z M47.784,273.27h-9.425V154.752h9.425V273.27z M84.75,273.27H52.784V154.752H84.75 V273.27z M84.75,145.035v4.717H62.702v-9.426h22.643C84.97,141.838,84.75,143.409,84.75,145.035z M53.682,135.326v-17.544h71.64 v7.631h-20.937c-7.291,0-13.654,4.001-17.04,9.913H53.682z M351.864,411.213H114.148c-13.454,0-24.399-10.945-24.399-24.399V369.33 v-69.013V278.27V149.752v-4.717c0-6.564,4.354-12.131,10.327-13.973v253.023c0,12.247,9.963,22.21,22.21,22.21h245.862 C363.478,409.399,357.88,411.213,351.864,411.213z M381.368,146.146v89.59v11.388v44.67v89.915c0,7.512-2.826,14.373-7.465,19.587 H122.287c-9.49,0-17.21-7.72-17.21-17.21V130.414h20.245v8.367c0,3.338,2.715,6.054,6.053,6.054h228.208 c3.338,0,6.054-2.716,6.054-6.054v-8.367h1.111c8.062,0,14.621,6.559,14.621,14.621V146.146z M400.302,339.548v47.901 l-16.675,7.733c1.763-4.142,2.741-8.695,2.741-13.474v-48.63L400.302,339.548z"/> <path d="M149.249,130.409h192.459c1.592,0,3.079-0.71,4.078-1.949c1-1.239,1.38-2.842,1.043-4.398l-6.03-27.879 c-0.519-2.394-2.672-4.132-5.122-4.132H155.279c-2.449,0-4.603,1.738-5.122,4.132l-6.03,27.878 c-0.336,1.556,0.044,3.159,1.043,4.398C146.17,129.698,147.657,130.409,149.249,130.409z M149.014,125.118l6.03-27.878 c0.024-0.11,0.123-0.189,0.235-0.189h180.399c0.112,0,0.211,0.08,0.235,0.189l6.03,27.878c0.006,0.028,0.024,0.112-0.048,0.202 c-0.072,0.089-0.159,0.089-0.187,0.089H149.249c-0.028,0-0.115,0-0.187-0.089C148.99,125.23,149.008,125.146,149.014,125.118z"/> </g> </g>
</svg>